<svg xmlns="http://www.w3.org/2000/svg" viewBox="0 0 120 120" width="120" height="120">
<defs><linearGradient id="tgf" x1="22" y1="22" x2="96" y2="96" gradientUnits="userSpaceOnUse"><stop offset="0" stop-color="#5EEAD4"/><stop offset="1" stop-color="#2DD4BF"/></linearGradient></defs>
<rect width="120" height="120" rx="26" fill="#16191A"/><g transform="translate(2,2) scale(0.9667)"><path d="M 80.16 86.37 A 36.0 36.0 0 0 1 52.99 93.65" stroke="url(#tgf)" stroke-width="12.0" stroke-linecap="round" fill="none"/>
<path d="M 44.51 91.38 A 36.0 36.0 0 0 1 24.62 71.49" stroke="url(#tgf)" stroke-width="12.0" stroke-linecap="round" fill="none"/>
<path d="M 22.35 63.01 A 36.0 36.0 0 0 1 29.63 35.84" stroke="url(#tgf)" stroke-width="12.0" stroke-linecap="round" fill="none"/>
<path d="M 35.84 29.63 A 36.0 36.0 0 0 1 63.01 22.35" stroke="url(#tgf)" stroke-width="12.0" stroke-linecap="round" fill="none"/>
<path d="M 71.49 24.62 A 36.0 36.0 0 0 1 91.38 44.51" stroke="url(#tgf)" stroke-width="12.0" stroke-linecap="round" fill="none"/>
<path d="M 93.65 52.99 A 36.0 36.0 0 0 1 86.37 80.16" stroke="url(#tgf)" stroke-width="12.0" stroke-linecap="round" fill="none"/><path d="M 76.38 76.38 L 96.18 96.18" stroke="#2DD4BF" stroke-width="12.0" stroke-linecap="round" fill="none"/><circle cx="58.0" cy="58.0" r="6.5" fill="#2DD4BF"/></g>
</svg>